<?xml version="1.0" encoding="UTF-8"?>
<svg id="Layer_2" data-name="Layer 2" xmlns="http://www.w3.org/2000/svg" xmlns:xlink="http://www.w3.org/1999/xlink" viewBox="0 0 127.81 108.84">
  <defs>
    <style>
      .cls-1, .cls-2 {
        fill: #fff;
      }

      .cls-3, .cls-4, .cls-5 {
        fill: none;
      }

      .cls-3, .cls-4, .cls-2 {
        stroke-miterlimit: 10;
      }

      .cls-3, .cls-2 {
        stroke: #000;
      }

      .cls-4 {
        stroke: #fff;
      }

      .cls-6 {
        clip-path: url(#clippath-1);
      }

      .cls-7 {
        clip-path: url(#clippath);
      }
    </style>
    <clipPath id="clippath">
      <path class="cls-5" d="M47.37,42.18c0,.88-.43,19.41-.77,33.92-.22,9.53,5.92,17.43,13.62,17.53,.14,0,.28,0,.42,0,7.65,.09,13.9-7.56,13.9-17.03V42.18h-27.17Z"/>
    </clipPath>
    <clipPath id="clippath-1">
      <path class="cls-5" d="M124.37,106.52s-.07-13.55-7.17-23.39c-6.84-9.47-46.36-19.01-46.36-19.01,.04,.45-.86,.22-1.2,.15-5.05-1.13-10.79-.15-15.91-.15,0,0-37.53,10.43-46.36,19.01C-1.91,92.16,.21,106.52,.21,106.52"/>
    </clipPath>
  </defs>
  <g id="OBJEKTS">
    <g>
      <g>
        <path d="M93.8,32.89c-.65-2.68-2.89-4.54-5.5-5.2-.47-.12-.93-.18-1.39-.22,3.3-2.78,5.76-6.83,1.62-10.2-2.36-1.92-5.27-2.22-8.01-1.51,.79-1.69,1.29-3.51,1.45-5.4,.29-3.29-1.69-5.03-4.81-5.34-3.01-.3-5.51,1.32-7.4,3.63-.17,0-.34,0-.5-.02,.21-1.83,.18-3.66-.71-5.33-1.31-2.47-4.05-3.79-6.8-3.12-2.11,.52-3.88,1.42-5.06,3.34-.94,1.52-1.36,3.31-1.54,5.08-1.62-1.94-3.84-3.37-6.28-4.04-5.36-1.49-7.12,4.58-5.98,8.67-.15,.08-.32,.14-.48,.19-3.36-1.9-7.71-2.02-9.91,1.88-2.04,3.64-.36,6.54,2.16,8.88-.7-.02-1.39,.03-2.08,.22-2.19,.59-3.96,2.32-4.46,4.54-.53,2.34,.59,4.48,2.43,5.87,.19,.14,.38,.27,.57,.4-2.54,1.36-4.35,3.77-2.89,6.84,1.07,2.25,3.64,3.08,5.95,3.33,.01,0,.02,0,.03,0-1.18,1.99-1.99,5.05-.14,6.87,1.63,1.61,4.47,1.52,6.63,.94-1.01,2.95-.87,6.17,2.04,7.74,2.39,1.29,4.93,.12,7.14-1.73,.13,.86,.38,1.7,.82,2.47,1.03,1.8,3.01,3.1,5.13,2.71,2.01-.37,3.66-1.93,4.86-3.8,1.4,2.92,4.5,5.27,7.74,3.8,1.75-.8,2.68-2.29,3.15-4.02,3.11,2.17,7.45,3.6,10.16,.74,2.63-2.77,1.75-6.6-.07-9.8,.37,.08,.74,.15,1.12,.19,2.22,.23,5.21-.26,6.18-2.57,1.22-2.89-.68-5.22-3.19-6.76,1.7-.19,3.34-.59,4.87-1.66,2.37-1.67,3.86-4.73,3.15-7.63Z"/>
        <path d="M124.37,106.52s-.07-13.55-7.17-23.39c-6.84-9.47-46.36-19.01-46.36-19.01,.04,.45-.86,.22-1.2,.15-5.05-1.13-10.79-.15-15.91-.15,0,0-37.53,10.43-46.36,19.01C-1.91,92.16,.21,106.52,.21,106.52"/>
        <path class="cls-2" d="M47.37,42.18c0,.88-.43,19.41-.77,33.92-.22,9.53,5.92,17.43,13.62,17.53,.14,0,.28,0,.42,0,7.65,.09,13.9-7.56,13.9-17.03V42.18h-27.17Z"/>
        <g class="cls-7">
          <path d="M61.73,56.65c.38,1.27,.99,2.28,1.74,3.14,1.38,1.09,2.76,2.17,4.15,3.24,.45,.28,.9,.56,1.33,.84,1.03,.67,2.06,1.32,3.09,1.98,1.73,1,3.45,2.02,5.18,3.02,1.17,.68,2.35,1.32,3.56,1.88-.69-7.65-1.73-15.26-3.11-22.77-.07-.4-.17-.83-.44-1.06-.3-.25-.69-.17-1.04-.07-4.15,1.09-16.97,1.38-14.45,9.8Z"/>
        </g>
        <rect class="cls-2" x="43.68" y="22" width="35.82" height="39.56" rx="14.2" ry="14.2"/>
        <circle cx="51.8" cy="39.41" r=".73"/>
        <circle cx="72.27" cy="39.41" r=".73"/>
        <path class="cls-2" d="M45.6,36.87c-1.65-.33-3.46-.26-4.87,.78s-2.22,3.28-1.43,4.97c.44,.95,1.29,1.58,2.14,2.04,1.17,.63,2.42,1.04,3.7,1.21"/>
        <path d="M44.32,39.78c-.62-.18-1.31-.17-1.85,.22s-.87,1.2-.63,1.87c.18,.49,.61,.82,1.06,.95,.45,.13,.93,.1,1.39,.06"/>
        <line class="cls-4" x1="60.5" y1="106.53" x2="60.5" y2="85.32"/>
        <path class="cls-2" d="M59.04,95.19c0,.61-.49,1.1-1.1,1.1s-1.1-.49-1.1-1.1,.49-1.1,1.1-1.1,1.1,.49,1.1,1.1Z"/>
        <path class="cls-2" d="M59.04,101.03c0,.61-.49,1.1-1.1,1.1s-1.1-.49-1.1-1.1,.49-1.1,1.1-1.1,1.1,.49,1.1,1.1Z"/>
        <path class="cls-3" d="M57.13,51.89c.96,1.77,2.95,2.93,4.96,2.88,2.01-.04,3.95-1.29,4.83-3.1"/>
        <path class="cls-3" d="M65.82,37.91c-.16,.35-.26,.71-.26,1.09,0,2.25,3.12,4.07,6.97,4.07s6.97-1.82,6.97-4.07c0-.38-.09-.74-.26-1.09h-13.41Z"/>
        <path class="cls-3" d="M44.87,38.12c-.16,.35-.26,.71-.26,1.09,0,2.25,3.12,4.07,6.97,4.07s6.97-1.82,6.97-4.07c0-.38-.1-.74-.26-1.09h-13.41Z"/>
        <line class="cls-3" x1="58.6" y1="38.99" x2="65.56" y2="38.99"/>
        <path class="cls-3" d="M53.48,36.03c-1.12-.8-2.68-.94-3.93-.36"/>
        <path class="cls-3" d="M70.17,36.08c1.3-.73,3.05-.54,4.17,.45"/>
        <path class="cls-2" d="M62.08,57.3c-.14,.26-.27,.52-.34,.81-.07,.29-.06,.6,.09,.85,.18,.31,.53,.47,.85,.62"/>
        <path class="cls-3" d="M61.84,37.08c.87,3.48,1.59,6.98,2.16,10.5,.02,.12,.03,.25-.07,.34-.09,.07-.22,.08-.34,.08-1.1-.02-2.18-.39-2.99-1.02"/>
      </g>
      <g class="cls-6">
        <g>
          <path class="cls-1" d="M69.95,99.64c-.05,.54-.02,1.09-.24,1.58-.35,.77-1.22,1.16-1.78,1.79-1.07,1.21-.85,3.16,.04,4.51,.51,.78,1.39,1.48,2.29,1.26,.89-.21,1.34-1.17,1.95-1.84,.87-.96,2.42-1.42,3.07-2.56,.78-1.38-.32-2.01-.55-3.36-.13-.76,.34-1.71-.24-2.23-.26-.24-.65-.26-.98-.39-.9-.36-1.37-1.25-2.41-.78-.64,.29-1.1,1.38-1.15,2.02Z"/>
          <g>
            <path class="cls-1" d="M30.27,93.83c.02-1.12,.61-2.16,1.37-2.98,.67-.71,1.81-1.3,2.58-.69,.36,.29,.52,.76,.79,1.13,.52,.69,1.41,.97,2.2,1.31,.79,.34,1.63,.92,1.72,1.77,.09,.76-.44,1.45-1.02,1.94-2.32,1.95-7.73,1.36-7.65-2.48Z"/>
            <path class="cls-1" d="M11.3,98.59c-.33,.07-.66,.13-.98,.21-1.43,.37-2.77,1.56-2.79,3.03-.02,1.23,.86,2.32,1.88,3.01,.93,.63,2.06,1.05,3.19,.95,1.13-.1,2.23-.78,2.66-1.82,.31-.75,.25-1.62,.63-2.35,.55-1.08,1.71-2.15,1.91-3.39,.21-1.29-1-2.2-2.08-2.57-.5-.17-1.09-.18-1.53,.12-.71,.47-.8,1.5-1.39,2.11-.39,.4-.93,.57-1.49,.69Z"/>
            <path class="cls-1" d="M26.88,85.34c.75-.78,.58-2.19,1.4-2.9,.29-.25,.68-.38,1-.59,1.17-.75,1.42-2.43,.96-3.75-.39-1.13-1.66-2.49-3.01-2.02-.77,.27-1.18,1.17-1.94,1.48-.56,.23-1.2,.08-1.8,.16-.54,.07-1.04,.34-1.41,.74-.35,.38-.58,.92-.45,1.42,.24,.97,1.59,1.36,1.79,2.35,.1,.51-.15,1.07,.05,1.56,.15,.37,.52,.49,.74,.79,.2,.27,.23,.59,.47,.84,.58,.59,1.63,.51,2.19-.07Z"/>
            <path class="cls-1" d="M40.42,81.38c.27,.48,.2,1.12,.54,1.54,.49,.6,1.5,.36,2.06-.18,.71-.69,1-1.77,.75-2.72-.18-.68-.63-1.31-.64-2.02-.02-1.12,1.05-2.3,.15-3.29-.81-.89-2.1-.41-2.83,.21-.72,.61-1.56,2.39-1.69,3.3-.26,1.87,.89,1.81,1.65,3.15Z"/>
            <path class="cls-1" d="M46.1,103.73c-.09-.1-.17-.2-.25-.3-.91-1.25-.92-2.92-.89-4.47,.02-.86,.06-1.78,.58-2.46,.73-.96,2.14-1.09,3.32-.82,.69,.15,1.41,.45,1.76,1.07,.19,.33,.25,.73,.41,1.07,.56,1.16,2,.79,2.68,1.66,.84,1.06-.09,2.85-1,3.54-.52,.4-1.11,.72-1.55,1.21-.25,.28-.45,.62-.75,.86-.9,.72-2.25,.25-3.21-.4-.4-.27-.79-.58-1.11-.94Z"/>
            <path class="cls-1" d="M76.72,87.38c-.09-.6,.03-1.3,.54-1.62,.52-.32,1.26-.12,1.75-.48,.46-.34,.51-1.01,.88-1.45,.26-.31,.66-.46,1.06-.56,.53-.13,1.11-.17,1.61,.04,.5,.21,.91,.73,.85,1.27-.05,.5-.46,.96-.33,1.45,.11,.41,.57,.62,.88,.91,.56,.51,.71,1.35,.54,2.08-.22,.96-1.09,1.83-2.08,1.74-.73-.07-1.26-.61-1.92-.86-.56-.21-.95-.07-1.5-.12-1.2-.11-2.11-1.27-2.29-2.41Z"/>
            <path class="cls-1" d="M103.69,82.76c.04-1.36-.67-2.52-1.82-3.21-.76-.45-1.29-.68-1.95-1.29-.76-.71-1.16-1.42-2.36-1.41-.99,.01-2.39,.86-2.57,1.93-.16,.98,.96,1.5,1.13,2.37,.25,1.32-.92,2.52-.17,3.86,.4,.71,1.2,1.08,1.97,1.37,.83,.31,1.73,.59,2.59,.36,.6-.16,1.11-.54,1.57-.96,.7-.64,1.32-1.43,1.52-2.36,.05-.22,.07-.45,.08-.66Z"/>
            <path class="cls-1" d="M97.18,99.95c-.2-.57-.31-1.23-.03-1.77,.47-.89,1.73-.99,2.46-1.69,.59-.56,.78-1.46,1.39-2.01,.5-.46,1.22-.6,1.89-.63,1.08-.05,2.38,.32,2.67,1.36,.24,.87-.36,1.77-.25,2.67,.12,.92,.96,1.65,.98,2.58,.02,1.13-1.17,1.89-2.26,2.19-.81,.23-1.64,.25-2.47,.41-.5,.09-1,.31-1.51,.2-1.36-.3-2.46-2.09-2.88-3.3Z"/>
            <path class="cls-1" d="M119.53,93.39c-.28,.2-.54,.44-.7,.74-.47,.9,.17,2.01-.09,2.99-.26,.97-1.34,1.61-1.41,2.61-.06,.87,.7,1.59,1.48,1.98,2.17,1.09,4.95,.64,6.81-.91,1.47-1.22,2.41-3.15,2.15-5.04-.25-1.78-1.57-3.07-3.23-3.6-1.67-.54-3.65,.22-5.01,1.22Z"/>
            <path class="cls-1" d="M84.34,64.83c-.59,.98-1.28,1.92-1.65,3.01-.25,.74-.34,1.6,.08,2.26,.25,.39,.65,.67,1.03,.93,.71,.48,1.43,.96,2.14,1.45,.13,.09,.27,.18,.42,.2,.28,.05,.54-.12,.77-.29,.84-.59,1.76-1.33,1.79-2.35,.01-.41-.13-.82-.04-1.22,.17-.77,1.08-1.12,1.51-1.78,.52-.8,.24-1.86-.05-2.77-.15-.45-.3-.91-.63-1.25-.61-.63-2.46-1.34-3.35-1.11-1.09,.28-1.54,2.07-2.03,2.94Z"/>
            <path class="cls-1" d="M10.79,79.69c.79,.46,1.1,1.43,1.74,2.08,.6,.61,1.45,.9,2.1,1.46,.94,.81,1.36,2.18,1.02,3.38-.34,1.2-1.41,2.15-2.64,2.34-1.23,.2-2.54-.38-3.24-1.41-.38-.57-.58-1.24-.9-1.85-.32-.61-.83-1.19-1.51-1.29-1.33-.21-2.29,.21-2.91-1.35-.32-.81-.28-1.69,.3-2.37,1.17-1.39,4.51-1.88,6.03-1Z"/>
          </g>
        </g>
      </g>
    </g>
  </g>
</svg>