<?xml version="1.0" encoding="UTF-8"?>
<svg id="Layer_2" data-name="Layer 2" xmlns="http://www.w3.org/2000/svg" xmlns:xlink="http://www.w3.org/1999/xlink" viewBox="0 0 124.36 105.91">
  <defs>
    <style>
      .cls-1, .cls-2, .cls-3, .cls-4 {
        fill: none;
      }

      .cls-1, .cls-2, .cls-3, .cls-5 {
        stroke-miterlimit: 10;
      }

      .cls-1, .cls-3, .cls-5 {
        stroke: #000;
      }

      .cls-2 {
        stroke: #fff;
      }

      .cls-3 {
        stroke-linecap: round;
      }

      .cls-6 {
        clip-path: url(#clippath);
      }

      .cls-5 {
        fill: #fff;
      }
    </style>
    <clipPath id="clippath">
      <path class="cls-4" d="M44.93,36.24c0,.85-.51,18.69-.91,32.65-.26,9.18,6.98,16.78,16.06,16.87,.17,0,.33,0,.5,0,9.02,.09,16.39-7.28,16.39-16.4V36.24H44.93Z"/>
    </clipPath>
  </defs>
  <g id="OBJEKTS">
    <g>
      <path d="M124.36,105.91s-1.11-19-7.19-22.52c-6.08-3.52-46.43-18.3-46.43-18.3,.04,.43-.86,.21-1.2,.14-5.06-1.09-10.81-.14-15.94-.14,0,0-40.35,14.78-46.43,18.3-6.08,3.52-7.19,22.52-7.19,22.52"/>
      <path class="cls-5" d="M60.42,85.5l-9.15,11.96-6.8-22.49c-1.07-3.55,1.69-7.09,5.39-6.91l19.1-1.96c4.67-.48,8.34,3.93,7.02,8.43-2.97,10.1-7.35,24.56-7.81,23.64-.7-1.41-7.74-12.67-7.74-12.67Z"/>
      <path class="cls-5" d="M44.93,36.24c0,.85-.51,18.69-.91,32.65-.26,9.18,6.98,16.78,16.06,16.87,.17,0,.33,0,.5,0,9.02,.09,16.39-7.28,16.39-16.4V36.24H44.93Z"/>
      <g class="cls-6">
        <path d="M64.04,45.89c-.03,1.3,.29,2.47,.81,3.56,1.13,1.57,2.27,3.13,3.43,4.68,.4,.44,.79,.88,1.17,1.32,.89,1.04,1.8,2.06,2.7,3.09,1.55,1.64,3.09,3.29,4.64,4.93,1.05,1.11,2.12,2.19,3.26,3.21,1.91-7.16,3.43-14.43,4.53-21.75,.06-.39,.11-.81-.11-1.14-.24-.35-.7-.45-1.12-.51-4.93-.8-19.13-6.02-19.3,2.61Z"/>
      </g>
      <rect class="cls-5" x="44.24" y="10.2" width="34.48" height="44.69" rx="14.2" ry="14.2"/>
      <path class="cls-1" d="M66.07,26.52c.47,4.9,.48,9.85,.03,14.75-1.06-.48-2.26-.64-3.4-.47"/>
      <path class="cls-1" d="M57.94,42.87c1.56,.9,3.16,1.81,4.92,2.18,1.77,.37,3.76,.1,5.08-1.14"/>
      <path d="M84.94,16.34c-.26-2.4-2.12-4.28-3.87-5.94-4.31-4.1-8.88-8.34-14.63-9.9-5.74-1.56-12.96,.58-15.06,6.15-3.16-2.2-7.88-.77-10.18,2.32-2.3,3.08-2.61,7.26-1.97,11.06,.56,3.37,1.81,6.62,3.62,9.51,.11,.55,.24,1.09,.42,1.63,.25,.74,1.36,.63,1.38-.19,.06-2.81,.02-5.64,.25-8.44,.09-1.15,.29-2.3,.64-3.39,.63-1.08,1.43-2.08,2.47-2.95,4.14-3.48,6.74-2.44,10.18,1.02,2.82,2.85,6.26,4.62,10.3,4.98,.91,.08,8.03-.6,10.21-1.98-.32,.2,.03,3.61,.03,4.1,0,.51-.32,3.45,.35,3.46,1.37,.04,3.3-4.37,3.88-5.37,1.09-1.88,2.22-3.93,1.98-6.08Z"/>
      <circle cx="55.15" cy="29.55" r=".7"/>
      <path d="M75.55,29.55c0,.39-.32,.7-.7,.7s-.7-.32-.7-.7,.32-.7,.7-.7,.7,.31,.7,.7Z"/>
      <path class="cls-1" d="M52.31,27.72c1.07-.83,2.46-1.23,3.8-1.1"/>
      <path class="cls-1" d="M76.73,27.07c-1.14-.8-2.59-1.16-3.97-.97"/>
      <path class="cls-3" d="M48.09,45.41v1.59"/>
      <path class="cls-3" d="M51.76,49.07v1.59"/>
      <path class="cls-3" d="M52.74,43.23c.03,.5,.07,.99,.1,1.49"/>
      <path class="cls-3" d="M57,49.47c-.04,.69-.08,1.39-.11,2.08"/>
      <path class="cls-3" d="M61.47,48.18v1.09"/>
      <path class="cls-3" d="M64.74,50.56v1.29"/>
      <path class="cls-3" d="M70.28,47.79c.03,.43,.07,.86,.1,1.29"/>
      <path class="cls-3" d="M74.35,48.97v1.19"/>
      <path class="cls-3" d="M73.36,43.13v1.98"/>
      <path class="cls-3" d="M76.63,43.72l.1,1.78"/>
      <path class="cls-5" d="M46.85,29.58c-1.98-.35-4.14-.28-5.82,.82s-2.65,3.44-1.71,5.21c.53,1,1.54,1.65,2.56,2.14,1.39,.66,2.9,1.09,4.43,1.27"/>
      <path d="M45.33,32.63c-.74-.19-1.56-.17-2.21,.23-.65,.4-1.03,1.26-.75,1.96,.21,.52,.73,.86,1.27,.99,.54,.14,1.11,.1,1.67,.07"/>
      <line class="cls-2" x1="60.42" y1="105.81" x2="60.42" y2="85.5"/>
      <circle class="cls-5" cx="57.96" cy="95" r="1.06"/>
      <circle class="cls-5" cx="57.96" cy="100.63" r="1.06"/>
    </g>
  </g>
</svg>