<?xml version="1.0" encoding="UTF-8"?>
<svg id="Layer_2" data-name="Layer 2" xmlns="http://www.w3.org/2000/svg" xmlns:xlink="http://www.w3.org/1999/xlink" viewBox="0 0 124.37 89.51">
  <defs>
    <style>
      .cls-1, .cls-2, .cls-3 {
        fill: none;
      }

      .cls-1, .cls-2, .cls-4 {
        stroke-miterlimit: 10;
      }

      .cls-1, .cls-4 {
        stroke: #000;
      }

      .cls-2 {
        stroke: #fff;
      }

      .cls-5 {
        clip-path: url(#clippath);
      }

      .cls-4 {
        fill: #fff;
      }
    </style>
    <clipPath id="clippath">
      <path class="cls-3" d="M47.37,25.17c0,.88-.43,19.41-.77,33.92-.22,9.53,5.92,17.43,13.62,17.53,.14,0,.28,0,.42,0,7.65,.09,13.9-7.56,13.9-17.03V25.17h-27.17Z"/>
    </clipPath>
  </defs>
  <g id="OBJEKTS">
    <g>
      <path d="M124.37,89.5s-.07-13.55-7.17-23.39c-6.84-9.47-46.36-19.01-46.36-19.01,.04,.45-.86,.22-1.2,.15-5.05-1.13-10.79-.15-15.91-.15,0,0-37.53,10.43-46.36,19.01C-1.91,75.14,.21,89.5,.21,89.5"/>
      <path class="cls-4" d="M47.37,25.17c0,.79-.43,17.35-.77,30.32-.22,8.52,5.92,15.58,13.62,15.67,.14,0,.28,0,.42,0,7.65,.08,13.9-6.76,13.9-15.23V25.17h-27.17Z"/>
      <g class="cls-5">
        <path d="M61.73,39.64c.38,1.27,.99,2.28,1.73,3.14,1.38,1.09,2.76,2.17,4.15,3.24,.45,.28,.9,.56,1.33,.84,1.03,.67,2.06,1.32,3.09,1.98,1.73,1,3.45,2.02,5.18,3.02,1.17,.68,2.35,1.32,3.56,1.88-.69-7.65-1.73-15.26-3.11-22.77-.07-.4-.17-.83-.44-1.06-.3-.25-.69-.17-1.04-.07-4.15,1.09-16.97,1.38-14.45,9.8Z"/>
      </g>
      <rect class="cls-4" x="43.68" y="4.98" width="35.82" height="39.56" rx="14.2" ry="14.2"/>
      <circle cx="51.8" cy="20.34" r=".73"/>
      <path d="M73,20.57c0,.4-.34,.73-.74,.72s-.73-.34-.72-.74,.34-.73,.74-.72c.4,0,.73,.34,.72,.74Z"/>
      <path class="cls-4" d="M45.6,19.86c-1.65-.33-3.46-.26-4.87,.78-1.41,1.04-2.22,3.28-1.43,4.97,.44,.95,1.29,1.58,2.14,2.04,1.17,.63,2.42,1.04,3.7,1.21"/>
      <path d="M44.32,22.77c-.62-.18-1.31-.17-1.85,.22s-.87,1.2-.63,1.87c.18,.49,.61,.82,1.06,.95,.45,.13,.93,.1,1.39,.06"/>
      <path class="cls-4" d="M77.85,19.86c1.65-.33,3.46-.26,4.87,.78,1.41,1.04,2.22,3.28,1.43,4.97-.44,.95-1.29,1.58-2.14,2.04-1.17,.63-2.42,1.04-3.7,1.21"/>
      <path d="M79.13,22.77c.62-.18,1.31-.17,1.85,.22s.87,1.2,.63,1.87c-.18,.49-.61,.82-1.06,.95-.45,.13-.93,.1-1.39,.06"/>
      <line class="cls-2" x1="60.5" y1="89.51" x2="60.5" y2="68.3"/>
      <path class="cls-4" d="M59.04,78.17c0,.61-.49,1.1-1.1,1.1s-1.1-.49-1.1-1.1,.49-1.1,1.1-1.1,1.1,.49,1.1,1.1Z"/>
      <path class="cls-4" d="M59.04,84.02c0,.61-.49,1.1-1.1,1.1s-1.1-.49-1.1-1.1,.49-1.1,1.1-1.1,1.1,.49,1.1,1.1Z"/>
      <path class="cls-1" d="M53.48,18.04c-1.12-.8-2.68-.94-3.93-.36"/>
      <path class="cls-1" d="M70.17,18.1c1.3-.73,3.05-.54,4.17,.45"/>
      <g>
        <line class="cls-1" x1="58.82" y1="23.93" x2="65.32" y2="23.93"/>
        <path d="M64.44,24.04c0,1.75,2.54,3.18,5.67,3.18s5.67-1.42,5.67-3.18-2.54-3.18-5.67-3.18-5.67,1.42-5.67,3.18Z"/>
        <path d="M48.1,24.04c0,1.75,2.54,3.18,5.67,3.18s5.67-1.42,5.67-3.18-2.54-3.18-5.67-3.18-5.67,1.42-5.67,3.18Z"/>
      </g>
      <path class="cls-1" d="M61.75,19.98c.08,2.49,.15,4.97,.23,7.46,0,.14,0,.3-.09,.4-.08,.08-.19,.11-.3,.13-.72,.19-1.39,.72-1.55,1.45-.16,.73,.35,1.59,1.1,1.64"/>
      <path class="cls-1" d="M59.42,35.16c1.09,.5,2.42,.45,3.46-.14"/>
      <path d="M72.28,7.83c-.21-.59,.73-.84,.94-.26,.95,2.67,1.58,5.43,2.06,8.21h9.23c-.53-8.78-10.54-15.78-22.81-15.78s-22.27,7-22.81,15.78h11.56c.23-2.45,.95-4.83,1.91-7.1,.24-.57,1.08-.08,.84,.49-.9,2.11-1.55,4.33-1.78,6.6h18.87c-.05-1.05-.12-2.11-.22-3.16-.02-.26,.24-.49,.49-.49,.28,0,.46,.22,.49,.49,.1,1.05,.17,2.1,.22,3.16h3.04c-.48-2.7-1.1-5.37-2.02-7.95Z"/>
      <path d="M60.19,38.61c.11,1.26,.19,2.51,.29,3.77,.47,0,.94,0,1.4,.03,.13-1.32,.22-2.65,.39-3.97-.69,.07-1.39,.13-2.08,.17Z"/>
    </g>
  </g>
</svg>