<?xml version="1.0" encoding="UTF-8"?>
<svg id="Layer_2" data-name="Layer 2" xmlns="http://www.w3.org/2000/svg" xmlns:xlink="http://www.w3.org/1999/xlink" viewBox="0 0 140.58 107.58">
  <defs>
    <style>
      .cls-1, .cls-2 {
        fill: #fff;
      }

      .cls-3, .cls-4, .cls-5, .cls-6, .cls-2 {
        stroke-miterlimit: 10;
      }

      .cls-3, .cls-4, .cls-5, .cls-7 {
        fill: none;
      }

      .cls-3, .cls-2 {
        stroke: #000;
      }

      .cls-4, .cls-5 {
        stroke: #fff;
      }

      .cls-5 {
        stroke-width: .5px;
      }

      .cls-6 {
        fill: url(#New_Pattern_8);
        opacity: .31;
        stroke: url(#New_Pattern_8-2);
      }

      .cls-8 {
        clip-path: url(#clippath);
      }
    </style>
    <pattern id="New_Pattern_8" data-name="New Pattern 8" x="0" y="0" width="89.5" height="89.5" patternTransform="translate(-251.86 -382.2)" patternUnits="userSpaceOnUse" viewBox="0 0 89.5 89.5">
      <g>
        <rect class="cls-7" x="0" width="89.5" height="89.5"/>
        <rect x="89.01" y="88.64" width="90" height="90"/>
        <rect x="-.49" y="88.64" width="90" height="90"/>
        <rect x="-89.99" y="88.64" width="90" height="90"/>
        <rect x="89.01" y="-.86" width="90" height="90"/>
        <g>
          <rect x="-.49" y="-.86" width="90" height="90"/>
          <g>
            <path class="cls-5" d="M1.26,29.21l.47-.54c1.05-1.21,2.92-1.21,3.97,0l.47,.54"/>
            <path class="cls-5" d="M7.39,37.29l.31-.35c1.13-1.31,3.16-1.31,4.29,0l.31,.35"/>
            <path class="cls-5" d="M4.53,45.37l.67-.77c.94-1.09,2.62-1.09,3.57,0l.67,.77"/>
            <path class="cls-5" d="M13.51,45.37l.67-.77c.94-1.09,2.62-1.09,3.57,0l.67,.77"/>
            <path class="cls-5" d="M1.67,53.44l.52-.6c1.02-1.18,2.84-1.18,3.86,0l.52,.6"/>
            <path class="cls-5" d="M10.65,53.44l.52-.6c1.02-1.18,2.84-1.18,3.86,0l.52,.6"/>
            <path class="cls-5" d="M19.63,53.44l.52-.6c1.02-1.18,2.84-1.18,3.86,0l.52,.6"/>
            <path class="cls-5" d="M7.79,61.52l.39-.45c1.09-1.25,3.03-1.25,4.12,0l.39,.45"/>
            <path class="cls-5" d="M16.77,61.52l.39-.45c1.09-1.25,3.03-1.25,4.12,0l.39,.45"/>
            <path class="cls-5" d="M25.76,61.52l.39-.45c1.09-1.25,3.03-1.25,4.12,0l.39,.45"/>
            <path class="cls-5" d="M4.94,69.6l.58-.67c.98-1.14,2.75-1.14,3.73,0l.58,.67"/>
            <path class="cls-5" d="M13.92,69.6l.58-.67c.98-1.14,2.75-1.14,3.73,0l.58,.67"/>
            <path class="cls-5" d="M22.9,69.6l.58-.67c.98-1.14,2.75-1.14,3.73,0l.58,.67"/>
            <path class="cls-5" d="M31.88,69.6l.58-.67c.98-1.14,2.75-1.14,3.73,0l.58,.67"/>
            <path class="cls-5" d="M2.08,77.67l.4-.46c1.08-1.25,3.02-1.25,4.1,0l.4,.46"/>
            <path class="cls-5" d="M11.06,77.67l.4-.46c1.08-1.25,3.02-1.25,4.1,0l.4,.46"/>
            <path class="cls-5" d="M20.04,77.67l.4-.46c1.08-1.25,3.02-1.25,4.1,0l.4,.46"/>
            <path class="cls-5" d="M29.02,77.67l.4-.46c1.08-1.25,3.02-1.25,4.1,0l.4,.46"/>
            <path class="cls-5" d="M38,77.67l.4-.46c1.08-1.25,3.02-1.25,4.1,0l.4,.46"/>
            <path class="cls-5" d="M8.2,85.75l.67-.77c.94-1.08,2.62-1.08,3.56,0l.67,.77"/>
            <path class="cls-5" d="M17.18,85.75l.67-.77c.94-1.08,2.62-1.08,3.56,0l.67,.77"/>
            <path class="cls-5" d="M26.16,85.75l.67-.77c.94-1.08,2.62-1.08,3.56,0l.67,.77"/>
            <path class="cls-5" d="M35.15,85.75l.67-.77c.94-1.08,2.62-1.08,3.56,0l.67,.77"/>
            <path class="cls-5" d="M44.13,85.75l.67-.77c.94-1.08,2.62-1.08,3.56,0l.67,.77"/>
            <path class="cls-5" d="M1.67,4.58l.78-.9c.88-1.02,2.46-1.02,3.34,0l.78,.9"/>
            <path class="cls-5" d="M10.65,4.58l.78-.9c.88-1.02,2.46-1.02,3.34,0l.78,.9"/>
            <path class="cls-5" d="M19.63,4.58l.78-.9c.88-1.02,2.46-1.02,3.34,0l.78,.9"/>
            <path class="cls-5" d="M28.61,4.58l.78-.9c.88-1.02,2.46-1.02,3.34,0l.78,.9"/>
            <path class="cls-5" d="M37.6,4.58l.78-.9c.88-1.02,2.46-1.02,3.34,0l.78,.9"/>
            <path class="cls-5" d="M46.58,4.58l.78-.9c.88-1.02,2.46-1.02,3.34,0l.78,.9"/>
            <path class="cls-5" d="M55.56,4.58l.78-.9c.88-1.02,2.46-1.02,3.34,0l.78,.9"/>
            <path class="cls-5" d="M64.54,4.58l.78-.9c.88-1.02,2.46-1.02,3.34,0l.78,.9"/>
            <path class="cls-5" d="M73.52,4.58l.78-.9c.88-1.02,2.46-1.02,3.34,0l.78,.9"/>
            <path class="cls-5" d="M82.5,4.58l.78-.9c.88-1.02,2.46-1.02,3.34,0l.78,.9"/>
            <path class="cls-5" d="M7.79,12.65l.38-.44c1.09-1.26,3.04-1.26,4.13,0l.38,.44"/>
            <path class="cls-5" d="M16.77,12.65l.38-.44c1.09-1.26,3.04-1.26,4.13,0l.38,.44"/>
            <path class="cls-5" d="M25.76,12.65l.38-.44c1.09-1.26,3.04-1.26,4.13,0l.38,.44"/>
            <path class="cls-5" d="M34.74,12.65l.38-.44c1.09-1.26,3.04-1.26,4.13,0l.38,.44"/>
            <path class="cls-5" d="M43.72,12.65l.38-.44c1.09-1.26,3.04-1.26,4.13,0l.38,.44"/>
            <path class="cls-5" d="M52.7,12.65l.38-.44c1.09-1.26,3.04-1.26,4.13,0l.38,.44"/>
            <path class="cls-5" d="M61.68,12.65l.38-.44c1.09-1.26,3.04-1.26,4.13,0l.38,.44"/>
            <path class="cls-5" d="M70.66,12.65l.38-.44c1.09-1.26,3.04-1.26,4.13,0l.38,.44"/>
            <path class="cls-5" d="M79.64,12.65l.38-.44c1.09-1.26,3.04-1.26,4.13,0l.38,.44"/>
            <path class="cls-5" d="M88.63,12.65l.38-.44c1.09-1.26,3.04-1.26,4.13,0l.38,.44"/>
            <path class="cls-5" d="M4.94,20.73l.27-.31c1.15-1.33,3.21-1.33,4.35,0l.27,.31"/>
            <path class="cls-5" d="M13.92,20.73l.27-.31c1.15-1.33,3.21-1.33,4.35,0l.27,.31"/>
            <path class="cls-5" d="M22.9,20.73l.27-.31c1.15-1.33,3.21-1.33,4.35,0l.27,.31"/>
            <path class="cls-5" d="M31.88,20.73l.27-.31c1.15-1.33,3.21-1.33,4.35,0l.27,.31"/>
            <path class="cls-5" d="M40.86,20.73l.27-.31c1.15-1.33,3.21-1.33,4.35,0l.27,.31"/>
            <path class="cls-5" d="M49.84,20.73l.27-.31c1.15-1.33,3.21-1.33,4.35,0l.27,.31"/>
            <path class="cls-5" d="M58.82,20.73l.27-.31c1.15-1.33,3.21-1.33,4.35,0l.27,.31"/>
            <path class="cls-5" d="M67.81,20.73l.27-.31c1.15-1.33,3.21-1.33,4.35,0l.27,.31"/>
            <path class="cls-5" d="M76.79,20.73l.27-.31c1.15-1.33,3.21-1.33,4.35,0l.27,.31"/>
            <path class="cls-5" d="M85.77,20.73l.27-.31c1.15-1.33,3.21-1.33,4.35,0l.27,.31"/>
            <path class="cls-5" d="M11.06,28.81l.47-.54c1.05-1.21,2.92-1.21,3.97,0l.47,.54"/>
            <path class="cls-5" d="M20.04,28.81l.47-.54c1.05-1.21,2.92-1.21,3.97,0l.47,.54"/>
            <path class="cls-5" d="M29.02,28.81l.47-.54c1.05-1.21,2.92-1.21,3.97,0l.47,.54"/>
            <path class="cls-5" d="M38,28.81l.47-.54c1.05-1.21,2.92-1.21,3.97,0l.47,.54"/>
            <path class="cls-5" d="M46.99,28.81l.47-.54c1.05-1.21,2.92-1.21,3.97,0l.47,.54"/>
            <path class="cls-5" d="M55.97,28.81l.47-.54c1.05-1.21,2.92-1.21,3.97,0l.47,.54"/>
            <path class="cls-5" d="M64.95,28.81l.47-.54c1.05-1.21,2.92-1.21,3.97,0l.47,.54"/>
            <path class="cls-5" d="M73.93,28.81l.47-.54c1.05-1.21,2.92-1.21,3.97,0l.47,.54"/>
            <path class="cls-5" d="M82.91,28.81l.47-.54c1.05-1.21,2.92-1.21,3.97,0l.47,.54"/>
            <path class="cls-5" d="M17.18,36.88l.31-.35c1.13-1.31,3.16-1.31,4.29,0l.31,.35"/>
            <path class="cls-5" d="M26.16,36.88l.31-.35c1.13-1.31,3.16-1.31,4.29,0l.31,.35"/>
            <path class="cls-5" d="M35.15,36.88l.31-.35c1.13-1.31,3.16-1.31,4.29,0l.31,.35"/>
            <path class="cls-5" d="M44.13,36.88l.31-.35c1.13-1.31,3.16-1.31,4.29,0l.31,.35"/>
            <path class="cls-5" d="M53.11,36.88l.31-.35c1.13-1.31,3.16-1.31,4.29,0l.31,.35"/>
            <path class="cls-5" d="M62.09,36.88l.31-.35c1.13-1.31,3.16-1.31,4.29,0l.31,.35"/>
            <path class="cls-5" d="M71.07,36.88l.31-.35c1.13-1.31,3.16-1.31,4.29,0l.31,.35"/>
            <path class="cls-5" d="M80.05,36.88l.31-.35c1.13-1.31,3.16-1.31,4.29,0l.31,.35"/>
            <path class="cls-5" d="M89.03,36.88l.31-.35c1.13-1.31,3.16-1.31,4.29,0l.31,.35"/>
            <path class="cls-5" d="M23.31,44.96l.67-.77c.94-1.09,2.62-1.09,3.57,0l.67,.77"/>
            <path class="cls-5" d="M32.29,44.96l.67-.77c.94-1.09,2.62-1.09,3.57,0l.67,.77"/>
            <path class="cls-5" d="M41.27,44.96l.67-.77c.94-1.09,2.62-1.09,3.57,0l.67,.77"/>
            <path class="cls-5" d="M50.25,44.96l.67-.77c.94-1.09,2.62-1.09,3.57,0l.67,.77"/>
            <path class="cls-5" d="M59.23,44.96l.67-.77c.94-1.09,2.62-1.09,3.57,0l.67,.77"/>
            <path class="cls-5" d="M68.21,44.96l.67-.77c.94-1.09,2.62-1.09,3.57,0l.67,.77"/>
            <path class="cls-5" d="M77.2,44.96l.67-.77c.94-1.09,2.62-1.09,3.57,0l.67,.77"/>
            <path class="cls-5" d="M86.18,44.96l.67-.77c.94-1.09,2.62-1.09,3.57,0l.67,.77"/>
            <path class="cls-5" d="M29.43,53.04l.52-.6c1.02-1.18,2.84-1.18,3.86,0l.52,.6"/>
            <path class="cls-5" d="M38.41,53.04l.52-.6c1.02-1.18,2.84-1.18,3.86,0l.52,.6"/>
            <path class="cls-5" d="M47.39,53.04l.52-.6c1.02-1.18,2.84-1.18,3.86,0l.52,.6"/>
            <path class="cls-5" d="M56.37,53.04l.52-.6c1.02-1.18,2.84-1.18,3.86,0l.52,.6"/>
            <path class="cls-5" d="M65.36,53.04l.52-.6c1.02-1.18,2.84-1.18,3.86,0l.52,.6"/>
            <path class="cls-5" d="M74.34,53.04l.52-.6c1.02-1.18,2.84-1.18,3.86,0l.52,.6"/>
            <path class="cls-5" d="M83.32,53.04l.52-.6c1.02-1.18,2.84-1.18,3.86,0l.52,.6"/>
            <path class="cls-5" d="M35.55,61.12l.39-.45c1.09-1.25,3.03-1.25,4.12,0l.39,.45"/>
            <path class="cls-5" d="M44.54,61.12l.39-.45c1.09-1.25,3.03-1.25,4.12,0l.39,.45"/>
            <path class="cls-5" d="M53.52,61.12l.39-.45c1.09-1.25,3.03-1.25,4.12,0l.39,.45"/>
            <path class="cls-5" d="M62.5,61.12l.39-.45c1.09-1.25,3.03-1.25,4.12,0l.39,.45"/>
            <path class="cls-5" d="M71.48,61.12l.39-.45c1.09-1.25,3.03-1.25,4.12,0l.39,.45"/>
            <path class="cls-5" d="M80.46,61.12l.39-.45c1.09-1.25,3.03-1.25,4.12,0l.39,.45"/>
            <path class="cls-5" d="M89.44,61.12l.39-.45c1.09-1.25,3.03-1.25,4.12,0l.39,.45"/>
            <path class="cls-5" d="M41.68,69.19l.58-.67c.98-1.14,2.75-1.14,3.73,0l.58,.67"/>
            <path class="cls-5" d="M50.66,69.19l.58-.67c.98-1.14,2.75-1.14,3.73,0l.58,.67"/>
            <path class="cls-5" d="M59.64,69.19l.58-.67c.98-1.14,2.75-1.14,3.73,0l.58,.67"/>
            <path class="cls-5" d="M68.62,69.19l.58-.67c.98-1.14,2.75-1.14,3.73,0l.58,.67"/>
            <path class="cls-5" d="M77.6,69.19l.58-.67c.98-1.14,2.75-1.14,3.73,0l.58,.67"/>
            <path class="cls-5" d="M86.58,69.19l.58-.67c.98-1.14,2.75-1.14,3.73,0l.58,.67"/>
            <path class="cls-5" d="M47.8,77.27l.4-.46c1.08-1.25,3.02-1.25,4.1,0l.4,.46"/>
            <path class="cls-5" d="M56.78,77.27l.4-.46c1.08-1.25,3.02-1.25,4.1,0l.4,.46"/>
            <path class="cls-5" d="M65.76,77.27l.4-.46c1.08-1.25,3.02-1.25,4.1,0l.4,.46"/>
            <path class="cls-5" d="M74.75,77.27l.4-.46c1.08-1.25,3.02-1.25,4.1,0l.4,.46"/>
            <path class="cls-5" d="M83.73,77.27l.4-.46c1.08-1.25,3.02-1.25,4.1,0l.4,.46"/>
            <path class="cls-5" d="M53.93,85.35l.67-.77c.94-1.08,2.62-1.08,3.56,0l.67,.77"/>
            <path class="cls-5" d="M62.91,85.35l.67-.77c.94-1.08,2.62-1.08,3.56,0l.67,.77"/>
            <path class="cls-5" d="M71.89,85.35l.67-.77c.94-1.08,2.62-1.08,3.56,0l.67,.77"/>
            <path class="cls-5" d="M80.87,85.35l.67-.77c.94-1.08,2.62-1.08,3.56,0l.67,.77"/>
            <path class="cls-5" d="M89.85,85.35l.67-.77c.94-1.08,2.62-1.08,3.56,0l.67,.77"/>
          </g>
        </g>
        <g>
          <rect x="-89.99" y="-.86" width="90" height="90"/>
          <g>
            <path class="cls-5" d="M-.87,12.65l.38-.44c1.09-1.26,3.04-1.26,4.13,0l.38,.44"/>
            <path class="cls-5" d="M-3.73,20.73l.27-.31c1.15-1.33,3.21-1.33,4.35,0l.27,.31"/>
            <path class="cls-5" d="M-.47,36.88l.31-.35c1.13-1.31,3.16-1.31,4.29,0l.31,.35"/>
            <path class="cls-5" d="M-3.32,44.96l.67-.77c.94-1.09,2.62-1.09,3.57,0l.67,.77"/>
            <path class="cls-5" d="M-.06,61.12l.39-.45c1.09-1.25,3.03-1.25,4.12,0l.39,.45"/>
            <path class="cls-5" d="M-2.91,69.19l.58-.67c.98-1.14,2.75-1.14,3.73,0l.58,.67"/>
            <path class="cls-5" d="M.35,85.35l.67-.77c.94-1.08,2.62-1.08,3.56,0l.67,.77"/>
          </g>
        </g>
      </g>
    </pattern>
    <pattern id="New_Pattern_8-2" data-name="New Pattern 8" patternTransform="translate(-176.86 -337.7)" xlink:href="#New_Pattern_8"/>
    <clipPath id="clippath">
      <path class="cls-7" d="M53.04,37.87c0,.85-.51,18.69-.91,32.65-.26,9.18,6.98,16.78,16.06,16.87,.17,0,.33,0,.5,0,9.02,.09,16.39-7.28,16.39-16.4V37.87H53.04Z"/>
    </clipPath>
  </defs>
  <g id="OBJEKTS">
    <g>
      <path d="M87.97,36.17c-.16-1.47-.46-2.92-.96-4.32-.26-.74-.72-1.57-1.51-1.64-.75-.07-1.35,.6-1.69,1.27-1.07,2.15-.72,4.24-.39,6.46,.38,2.5,.13,5.37-.21,7.86-.3,2.22-1.1,4.85-2.68,6.55-.89,.96-.95,2.48,0,3.44,2.86,2.86,6.5-2.73,7.15-4.99,.88-3.08,.36-6.21,.44-9.33,.04-1.76,.03-3.54-.16-5.3Z"/>
      <path d="M140.08,107.54s-1.24-19-8.06-22.52c-6.82-3.52-52.11-18.3-52.11-18.3,.05,.43-.97,.21-1.34,.14-5.67-1.09-12.13-.14-17.89-.14,0,0-45.29,14.78-52.11,18.3C1.74,88.54,.5,107.54,.5,107.54"/>
      <path class="cls-6" d="M140.08,107.54s-1.24-19-8.06-22.52c-6.82-3.52-52.11-18.3-52.11-18.3,.05,.43-.97,.21-1.34,.14-5.67-1.09-12.13-.14-17.89-.14,0,0-45.29,14.78-52.11,18.3C1.74,88.54,.5,107.54,.5,107.54"/>
      <path class="cls-2" d="M68.53,87.14l-19.43,6.32,2.91-23.32s2.25-.61,5.95-.44l19.1-1.96c4.67-.48,7.97,3.17,7.98,3.37,0,.19,1.94,22.35,1.94,22.35l-18.46-6.32Z"/>
      <path class="cls-2" d="M53.04,37.87c0,.85-.51,18.69-.91,32.65-.26,9.18,6.98,16.78,16.06,16.87,.17,0,.33,0,.5,0,9.02,.09,16.39-7.28,16.39-16.4V37.87H53.04Z"/>
      <g class="cls-8">
        <path d="M72.15,47.53c-.03,1.3,.29,2.47,.81,3.56,1.13,1.57,2.27,3.13,3.43,4.68,.4,.44,.79,.88,1.17,1.32,.89,1.04,1.8,2.06,2.7,3.09,1.55,1.64,3.09,3.29,4.64,4.93,1.05,1.11,2.12,2.19,3.26,3.21,1.91-7.16,3.43-14.43,4.53-21.75,.06-.39,.11-.81-.11-1.14-.24-.35-.7-.45-1.12-.51-4.93-.8-19.13-6.02-19.3,2.61Z"/>
      </g>
      <rect class="cls-2" x="52.35" y="11.84" width="34.48" height="44.69" rx="14.2" ry="14.2"/>
      <path d="M87.69,44.95c-1.28,.4-1.26,2.14-3.02,1.18-1.05-.57-2.03-1.19-3.14-1.64-2.08-.85-4.3-1.33-6.55-1.48-2.37-.16-4.76,.03-7.08,.5-.78,.16-5.98,2.25-6.31,2.02-2.08-1.49-3.43-3.92-3.43-6.67V20.23c-3.51,2.5-9.54,3.97-9.54,8.61l1.51,16.6c-.27,2.18-.39,4.37-.28,6.56,.12,2.43,.4,5.18,2.39,6.85,.47,.39,.95,.68,1.52,.89,.25,.09,.5,.17,.76,.2,.02,0,.03,0,.05,0,0,.02,.02,.05,.03,.08,.47,.95,.87,1.76,1.72,2.46,2.03,1.67,5.47,1.54,7.99,1.84,4.22,.5,8.57,.72,12.67-.39,4.1-1.11,7.98-3.75,9.67-7.65,.54-1.25,.85-2.6,1.09-3.94,.44-2.46,.66-4.99,.32-7.47-.13,.01-.26,.04-.37,.07Z"/>
      <path class="cls-3" d="M74.18,28.16c.47,3.78,.48,7.59,.03,11.37-1.06-.37-2.26-.5-3.4-.36"/>
      <path d="M93.16,9.96c.51-1.74,.78-3.59,.88-5.39,.04-.82,.05-1.69-.33-2.42-.39-.74-1.13-1.25-1.9-1.58-2.18-.94-4.83-.71-6.81,.61-2.06,1.37-3.64,3.89-6.12,3.94-1.94,.03-3.71-1.57-5.63-1.27-1.17,.18-2.13,1.04-3.27,1.33-1.63,.41-3.29-.38-4.96-.52-4.22-.35-9.22,3.67-10.32,7.6-1.83-.78-3.92-.4-5.38,.95-1.44,1.32-2.13,3.3-2.27,5.25-.19,2.55,.12,5.76,.76,8.24,.35,1.35,.8,2.68,1.36,3.96,.45,1.04,1.6,2.37,1.81,3.44,.11,.55,.24,1.09,.42,1.63,.25,.74,1.36,.63,1.38-.19,.06-2.47-.14-2.51,1.65-3.82,1.25-.91,2.2-1.93,2.73-3.42,.39-1.09,.53-2.25,.56-3.4,.02-.87-.38-2.35,.1-3.14,.93-1.55,4-.02,5.46,.22,3.72,.6,7.64,.69,11.37,.14,3.64-.53,6.45-.83,9.82-2.64,1.89-1.02,3.82-2.06,5.34-3.58,1.64-1.63,2.7-3.7,3.35-5.92Z"/>
      <path d="M62.99,31.19c0,.39-.31,.7-.7,.7s-.7-.32-.7-.7,.32-.7,.7-.7,.7,.32,.7,.7Z"/>
      <path d="M82.69,31.19c0,.39-.32,.7-.7,.7s-.7-.32-.7-.7,.32-.7,.7-.7,.7,.32,.7,.7Z"/>
      <path class="cls-3" d="M60.42,29.36c1.07-.83,2.46-1.23,3.8-1.1"/>
      <path class="cls-3" d="M84.84,28.71c-1.14-.8-2.59-1.16-3.97-.97"/>
      <line class="cls-4" x1="68.53" y1="107.44" x2="68.53" y2="87.14"/>
      <circle class="cls-2" cx="66.07" cy="96.64" r="1.06"/>
      <circle class="cls-2" cx="66.07" cy="102.27" r="1.06"/>
      <path class="cls-1" d="M68.17,46.54c.75,1.84,2.29,3.1,3.75,3.46,1.47,.35,2.86-.08,4.08-.81"/>
      <path d="M64.62,36.29l-.15-.35c-.13-.22-.3-.39-.52-.52-.12-.05-.23-.1-.35-.15-.26-.07-.52-.07-.77,0l-1.37,.24c-.19,.05-.35,.13-.5,.26-.16,.1-.28,.24-.38,.41-.11,.17-.16,.35-.17,.54-.04,.19-.03,.39,.03,.58l.15,.35c.13,.22,.3,.39,.52,.52,.12,.05,.23,.1,.35,.15,.26,.07,.52,.07,.77,0,.46-.08,.92-.16,1.37-.24,.19-.05,.35-.13,.5-.26,.16-.1,.28-.24,.38-.41,.11-.17,.16-.35,.17-.54,.04-.19,.03-.39-.03-.58Z"/>
      <path d="M83.12,35.49l-.29-.23c-.22-.13-.46-.19-.72-.2-.48-.07-.96-.16-1.43-.29-.19-.06-.39-.07-.58-.03-.19,0-.37,.07-.54,.17-.17,.09-.31,.22-.41,.38-.13,.14-.22,.31-.26,.5-.08,.37-.07,.79,.15,1.12,.21,.32,.5,.57,.87,.67,.71,.2,1.45,.31,2.18,.39,.2,0,.39-.03,.56-.13,.18-.06,.34-.16,.47-.3,.14-.13,.24-.29,.3-.47,.09-.17,.13-.36,.13-.56-.02-.38-.14-.77-.43-1.03Z"/>
      <path class="cls-2" d="M53.18,29.3c-1.97-.37-4.14,.33-5.46,1.86-1.54,1.77-1.82,4.53-.67,6.58,.51,.9,1.27,1.67,2.22,2.08,1.22,.52,2.58,.41,3.91,.19v-10.7Z"/>
      <path d="M55.86,34.98s-.01-.06-.02-.09c-.24-1.15-1.36-1.82-2.38-2.22-.07-.03-.15-.05-.23-.07-1.31-.27-2.77,.38-3.11,1.76-.96,3.9,6.26,3.79,5.73,.61Z"/>
    </g>
  </g>
</svg>