<?xml version="1.0" encoding="UTF-8"?>
<svg id="Layer_2" data-name="Layer 2" xmlns="http://www.w3.org/2000/svg" xmlns:xlink="http://www.w3.org/1999/xlink" viewBox="0 0 126.8 105.19">
  <defs>
    <style>
      .cls-1, .cls-2 {
        fill: none;
      }

      .cls-1, .cls-3 {
        stroke: #000;
        stroke-miterlimit: 10;
      }

      .cls-4 {
        clip-path: url(#clippath-1);
      }

      .cls-5 {
        clip-path: url(#clippath);
      }

      .cls-3 {
        fill: #fff;
      }
    </style>
    <clipPath id="clippath">
      <path class="cls-2" d="M49.61,30.3c0,.88-.43,19.41-.77,33.92-.22,9.53,5.92,17.43,13.62,17.53,.14,0,.28,0,.42,0,7.65,.09,13.9-7.56,13.9-17.03V30.3h-27.17Z"/>
    </clipPath>
    <clipPath id="clippath-1">
      <path class="cls-2" d="M119.43,71.24c-6.84-9.47-46.36-19.01-46.36-19.01,.04,.45-.86,.22-1.2,.15-5.05-1.13-10.79-.15-15.91-.15,0,0-37.53,10.43-46.36,19.01C.32,80.27,.5,94.63,.5,94.63H126.3s.24-13.55-6.87-23.39Z"/>
    </clipPath>
  </defs>
  <g id="OBJEKTS">
    <g>
      <path d="M46.9,47.23c-2.47,.71-5.56,1.27-7.26-.67-1.11-1.26-1.13-3.11-1.06-4.78,.15-3.32,.46-6.63,.95-9.92,.5-3.38,1.18-6.74,2.03-10.05,1.03-4,2.34-7.97,4.44-11.53,2.1-3.56,5.05-6.7,8.77-8.5,3.58-1.73,6.86-.47,10.36-1.38,3.54-.92,7.4-.21,10.53,1.63,3.79,2.24,6.54,5.97,8.24,10.04,1.69,4.07,2.41,8.47,2.85,12.85,.45,4.5,.62,9.12-.58,13.48-1.19,4.36-3.92,8.49-7.99,10.46-3.36,1.63-7.73,1.5-10.8-.72-1.53-1.11-2.39-3.51-4.51-2.95-2.25,.6-2.98,2.96-5.79,2.55-1.53-.22-2.88-1.12-4.38-1.46-2.03-.46-3.89,.39-5.8,.94Z"/>
      <path class="cls-3" d="M119.43,71.24c-6.84-9.47-46.36-19.01-46.36-19.01,.04,.45-.86,.22-1.2,.15-5.05-1.13-10.79-.15-15.91-.15,0,0-37.53,10.43-46.36,19.01C.32,80.27,.5,94.63,.5,94.63H126.3s.24-13.55-6.87-23.39Z"/>
      <path d="M91.42,40.64c1.6,6.32,3.39,12.61,5.01,18.91,1.03,3.98,2.26,8.61,.94,12.67-1.21,3.72-5.43,7.03-9.34,7.21-5.39,.25-8.72-1.88-10.87-6.71-1.7-3.8-2.14-8.06-2.33-12.17-.37-8.07-.33-16.19-1.31-24.2-.97-7.93-2.41-16.11-.36-24,.43-1.67,1.07-3.37,2.35-4.53,1.28-1.16,3.37-1.58,4.74-.54,.53,.4,.91,.97,1.26,1.54,4.5,7.28,6.2,15.48,8,23.72,.59,2.71,1.24,5.41,1.93,8.1Z"/>
      <path d="M44.02,15.87c-.54,1.3-.98,2.65-1.38,4.01-3.38,11.33-4.4,23.31-8.42,34.43-1.48,4.09-3.36,8.08-4.09,12.36-.85,4.99,.16,9.91,4.14,13.18,3,2.47,7.24,3.81,10.84,2.36,3.91-1.58,5.96-5.85,7.23-9.87,3.35-10.55,3.87-21.75,4.37-32.8,.21-4.74,.43-9.48,.64-14.22,.18-4.09,.37-8.22-.43-12.24-.27-1.36-.67-2.73-1.49-3.84-3.05-4.12-7.53,.03-9.56,3.08-.74,1.12-1.34,2.31-1.85,3.55Z"/>
      <path class="cls-3" d="M49.61,30.3c0,.88-.43,19.41-.77,33.92-.22,9.53,5.92,17.43,13.62,17.53,.14,0,.28,0,.42,0,7.65,.09,13.9-7.56,13.9-17.03V30.3h-27.17Z"/>
      <g class="cls-5">
        <path d="M63.97,44.76c.38,1.27,.99,2.28,1.73,3.14,1.38,1.09,2.76,2.17,4.15,3.24,.45,.28,.9,.56,1.33,.84,1.03,.67,2.06,1.32,3.09,1.98,1.73,1,3.45,2.02,5.18,3.02,1.17,.68,2.35,1.32,3.56,1.88-.69-7.65-1.73-15.26-3.11-22.77-.07-.4-.17-.83-.44-1.06-.3-.25-.69-.17-1.04-.07-4.15,1.09-16.97,1.38-14.45,9.8Z"/>
      </g>
      <rect class="cls-3" x="45.92" y="8.6" width="35.82" height="41.07" rx="17.91" ry="17.91"/>
      <path d="M54.77,27.5c0,.4-.33,.73-.73,.73s-.73-.33-.73-.73,.33-.73,.73-.73,.73,.33,.73,.73Z"/>
      <path d="M75.23,27.5c0,.4-.33,.73-.73,.73s-.73-.33-.73-.73,.33-.73,.73-.73,.73,.33,.73,.73Z"/>
      <path class="cls-1" d="M51.09,24.8c1.11-.86,2.55-1.28,3.95-1.15"/>
      <path class="cls-1" d="M78.06,24.12c-1.18-.84-2.69-1.2-4.12-1"/>
      <path class="cls-1" d="M59.37,38.05c.96,1.77,2.95,2.93,4.96,2.88,2.01-.04,3.95-1.29,4.83-3.1l-9.79,.21Z"/>
      <path d="M56.1,17.83h20.92c-.62-1.99-1.28-3.98-1.87-5.97-2.8-2.31-6.7-3.75-11.02-3.75-2.83,0-5.48,.62-7.76,1.69-.11,2.68-.21,5.35-.26,8.03Z"/>
      <path d="M55.37,10.31c-1.85,1.03-3.41,2.38-4.55,3.95-.43,1.16-.77,2.35-1.04,3.56h5.35c.05-2.51,.14-5.01,.24-7.51Z"/>
      <path class="cls-1" d="M62.04,32.97c-.39-1.36,.92-2.91,2.32-2.75,1.41,.15,2.35,1.94,1.68,3.19"/>
      <g class="cls-4">
        <path d="M89.93,87.48c1.53-1.18,2.56-2.87,3.9-4.27,1.33-1.4,3.22-2.55,5.11-2.15,.32,.07,.64,.19,.85,.44,.2,.24,.27,.56,.3,.87,.25,2.6-1.55,4.98-3.65,6.54-2.09,1.56-4.55,2.59-6.56,4.26-2.01,1.66-9.98,12.47-11.18,4.93-1.15-7.23,7.15-7.45,11.24-10.62Z"/>
        <path d="M109.83,71.14c-.78,1.86-1.86,3.59-2.57,5.49-.9,2.38-1.19,4.94-1.42,7.47-.12,1.3-.22,2.64,.24,3.86,.46,1.22,1.64,2.27,2.93,2.13,1.03-.1,1.88-.92,2.35-1.84,.47-.92,.66-1.96,.92-2.97,1.74-6.56,7.21-11.83,8.09-18.56,.3-2.33-.05-4.89-1.64-6.62-1.7-1.85-5.63-2.41-6.73,.26-.62,1.5-.39,3.75-.67,5.35-.32,1.85-.77,3.68-1.5,5.42Z"/>
        <path d="M5.8,60.26c.31,1.31,1.18,2.39,1.88,3.54,1.91,3.17,2.44,6.96,2.91,10.63,.14,1.08,.29,2.2,.83,3.15,.76,1.31,2.16,2.09,3.54,2.71,1.87,.84,4.25,1.44,5.83,.13,1.61-1.34,1.4-3.86,.91-5.9-1.12-4.6-2.95-9.02-5.41-13.06-1.36-2.23-3.09-4.48-5.59-5.21-1.23-.36-2.67-.28-3.63,.57-.89,.79-1.17,2.08-1.03,3.26,.14,1.18,.66,2.27,1.17,3.34"/>
        <path d="M17.1,98.83c.1-2.33,2.35-3.96,4.5-4.86,2.15-.9,4.58-1.52,6.08-3.31,.59-.7,.99-1.53,1.55-2.26,1.12-1.44,2.87-2.38,4.69-2.51,.8-.06,1.71,.09,2.2,.73,.34,.44,.4,1.03,.45,1.58,.15,1.68,.26,3.53-.75,4.89-.79,1.07-2.11,1.58-3.34,2.09-2.5,1.03-5.05,2.35-6.5,4.64-.68,1.08-1.07,2.31-1.77,3.38-.69,1.07-1.83,1.99-3.1,1.9-2.36-.18-4.1-4.21-4.01-6.27Z"/>
        <path d="M56.53,85.79c-1.65-1.33-3.88-2.5-5.79-1.59-1.07,.51-1.8,1.67-1.79,2.86,0,1.56,1.15,2.88,2.35,3.87s2.58,1.86,3.39,3.19c1.17,1.92,.93,4.38,1.69,6.5,.68,1.89,2.22,3.46,4.09,4.18,1.21,.47,2.6,.58,3.77,.03,6.49-3.08-4.75-16.65-7.71-19.04Z"/>
      </g>
    </g>
  </g>
</svg>