<?xml version="1.0" encoding="UTF-8"?>
<svg id="Layer_2" data-name="Layer 2" xmlns="http://www.w3.org/2000/svg" xmlns:xlink="http://www.w3.org/1999/xlink" viewBox="0 0 124.37 101.23">
  <defs>
    <style>
      .cls-1, .cls-2, .cls-3, .cls-4 {
        fill: none;
      }

      .cls-1, .cls-2, .cls-3, .cls-5 {
        stroke-miterlimit: 10;
      }

      .cls-1, .cls-3, .cls-5 {
        stroke: #000;
      }

      .cls-2 {
        stroke: #fff;
      }

      .cls-3 {
        stroke-linecap: round;
      }

      .cls-6 {
        clip-path: url(#clippath-2);
      }

      .cls-7 {
        clip-path: url(#clippath-1);
      }

      .cls-8 {
        clip-path: url(#clippath);
      }

      .cls-5 {
        fill: #fff;
      }

      .cls-9 {
        clip-path: url(#clippath-3);
      }
    </style>
    <clipPath id="clippath">
      <path class="cls-4" d="M124.37,101.23s-.07-13.55-7.17-23.39c-6.84-9.47-46.36-19.01-46.36-19.01,.04,.45-.86,.22-1.2,.15-5.05-1.13-10.79-.15-15.91-.15,0,0-37.53,10.43-46.36,19.01C-1.91,86.88,.21,101.23,.21,101.23"/>
    </clipPath>
    <clipPath id="clippath-1">
      <path class="cls-4" d="M124.37,101.23s-.07-13.55-7.17-23.39c-6.84-9.47-46.36-19.01-46.36-19.01,.04,.45-.86,.22-1.2,.15-5.05-1.13-10.79-.15-15.91-.15,0,0-37.53,10.43-46.36,19.01C-1.91,86.88,.21,101.23,.21,101.23"/>
    </clipPath>
    <clipPath id="clippath-2">
      <path class="cls-4" d="M124.37,101.23s-.07-13.55-7.17-23.39c-6.84-9.47-46.36-19.01-46.36-19.01,.04,.45-.86,.22-1.2,.15-5.05-1.13-10.79-.15-15.91-.15,0,0-37.53,10.43-46.36,19.01C-1.91,86.88,.21,101.23,.21,101.23"/>
    </clipPath>
    <clipPath id="clippath-3">
      <path class="cls-4" d="M49.31,31.07c0,.88-.43,19.41-.77,33.92-.22,9.53,5.92,17.43,13.62,17.53,.14,0,.28,0,.42,0,7.65,.09,13.9-7.56,13.9-17.03V31.07h-27.17Z"/>
    </clipPath>
  </defs>
  <g id="OBJEKTS">
    <g>
      <path class="cls-5" d="M78.76,69.37c1.59,.68,3.11,1.49,4.46,2.29,1.05,.63,2.08,1.34,3.26,1.69,.94,.28,1.94,.33,2.92,.35,4.31,.1,8.76-.15,12.67-1.97,5.59-2.6,8.68-9.19,7.59-15.18-.69-3.79-3.85-9.8-8.42-9.58,2.17-5,3.8-10.58,1.53-15.88-1.96-4.58-6.82-7.95-11.78-7.51-.36-4.5-.73-8.9-3.43-12.62-2.25-3.11-5.36-5.53-8.78-7.23-6.88-3.43-15.33-4.27-22.66-1.85-8.82,2.91-15.3,10.06-18.3,18.73-3.54,10.25-2.56,22.18,2.67,31.68,3.33,6.05,8.35,11.15,14.54,14.26,3.49,1.76,7.18,1.95,11.02,1.54,2.18-.23,4.47-.7,6.63-.47,1.98,.21,4.09,.87,6.09,1.74Z"/>
      <path d="M124.37,101.23s-.07-13.55-7.17-23.39c-6.84-9.47-46.36-19.01-46.36-19.01,.04,.45-.86,.22-1.2,.15-5.05-1.13-10.79-.15-15.91-.15,0,0-37.53,10.43-46.36,19.01C-1.91,86.88,.21,101.23,.21,101.23"/>
      <g>
        <g class="cls-8">
          <g>
            <g>
              <circle class="cls-5" cx="1.79" cy="90.54" r="3.83"/>
              <circle class="cls-5" cx="9.45" cy="90.54" r="3.83"/>
              <circle class="cls-5" cx="17.11" cy="90.54" r="3.83"/>
              <circle class="cls-5" cx="24.78" cy="90.54" r="3.83"/>
              <circle class="cls-5" cx="32.44" cy="90.54" r="3.83"/>
              <circle class="cls-5" cx="40.1" cy="90.54" r="3.83"/>
              <circle class="cls-5" cx="47.76" cy="90.54" r="3.83"/>
              <circle class="cls-5" cx="55.42" cy="90.54" r="3.83"/>
              <circle class="cls-5" cx="63.08" cy="90.54" r="3.83"/>
              <circle class="cls-5" cx="70.75" cy="90.54" r="3.83"/>
              <path class="cls-5" d="M82.24,90.54c0,2.12-1.72,3.83-3.83,3.83s-3.83-1.72-3.83-3.83,1.72-3.83,3.83-3.83,3.83,1.72,3.83,3.83Z"/>
              <circle class="cls-5" cx="86.07" cy="90.54" r="3.83"/>
              <circle class="cls-5" cx="93.73" cy="90.54" r="3.83"/>
              <circle class="cls-5" cx="101.39" cy="90.54" r="3.83"/>
              <circle class="cls-5" cx="109.05" cy="90.54" r="3.83"/>
              <circle class="cls-5" cx="116.71" cy="90.54" r="3.83"/>
              <circle class="cls-5" cx="124.38" cy="90.54" r="3.83"/>
            </g>
            <g>
              <circle class="cls-5" cx="1.79" cy="98.31" r="3.83"/>
              <circle class="cls-5" cx="9.45" cy="98.31" r="3.83"/>
              <circle class="cls-5" cx="17.11" cy="98.31" r="3.83"/>
              <circle class="cls-5" cx="24.78" cy="98.31" r="3.83"/>
              <circle class="cls-5" cx="32.44" cy="98.31" r="3.83"/>
              <circle class="cls-5" cx="40.1" cy="98.31" r="3.83"/>
              <circle class="cls-5" cx="47.76" cy="98.31" r="3.83"/>
              <circle class="cls-5" cx="55.42" cy="98.31" r="3.83"/>
              <circle class="cls-5" cx="63.08" cy="98.31" r="3.83"/>
              <circle class="cls-5" cx="70.75" cy="98.31" r="3.83"/>
              <path class="cls-5" d="M82.24,98.31c0,2.12-1.72,3.83-3.83,3.83s-3.83-1.72-3.83-3.83,1.72-3.83,3.83-3.83,3.83,1.72,3.83,3.83Z"/>
              <circle class="cls-5" cx="86.07" cy="98.31" r="3.83"/>
              <circle class="cls-5" cx="93.73" cy="98.31" r="3.83"/>
              <circle class="cls-5" cx="101.39" cy="98.31" r="3.83"/>
              <circle class="cls-5" cx="109.05" cy="98.31" r="3.83"/>
              <circle class="cls-5" cx="116.71" cy="98.31" r="3.83"/>
              <circle class="cls-5" cx="124.38" cy="98.31" r="3.83"/>
            </g>
            <g>
              <circle class="cls-5" cx="1.79" cy="82.88" r="3.83"/>
              <circle class="cls-5" cx="9.45" cy="82.88" r="3.83"/>
              <circle class="cls-5" cx="17.11" cy="82.88" r="3.83"/>
              <circle class="cls-5" cx="24.78" cy="82.88" r="3.83"/>
              <circle class="cls-5" cx="32.44" cy="82.88" r="3.83"/>
              <circle class="cls-5" cx="40.1" cy="82.88" r="3.83"/>
              <circle class="cls-5" cx="47.76" cy="82.88" r="3.83"/>
              <circle class="cls-5" cx="55.42" cy="82.88" r="3.83"/>
              <circle class="cls-5" cx="63.08" cy="82.88" r="3.83"/>
              <circle class="cls-5" cx="70.75" cy="82.88" r="3.83"/>
              <path class="cls-5" d="M82.24,82.88c0,2.12-1.72,3.83-3.83,3.83s-3.83-1.72-3.83-3.83,1.72-3.83,3.83-3.83,3.83,1.72,3.83,3.83Z"/>
              <circle class="cls-5" cx="86.07" cy="82.88" r="3.83"/>
              <circle class="cls-5" cx="93.73" cy="82.88" r="3.83"/>
              <circle class="cls-5" cx="101.39" cy="82.88" r="3.83"/>
              <circle class="cls-5" cx="109.05" cy="82.88" r="3.83"/>
              <circle class="cls-5" cx="116.71" cy="82.88" r="3.83"/>
              <circle class="cls-5" cx="124.38" cy="82.88" r="3.83"/>
            </g>
            <g>
              <circle class="cls-5" cx="1.79" cy="75.22" r="3.83"/>
              <circle class="cls-5" cx="9.45" cy="75.22" r="3.83"/>
              <circle class="cls-5" cx="17.11" cy="75.22" r="3.83"/>
              <circle class="cls-5" cx="24.78" cy="75.22" r="3.83"/>
              <circle class="cls-5" cx="32.44" cy="75.22" r="3.83"/>
              <circle class="cls-5" cx="40.1" cy="75.22" r="3.83"/>
              <circle class="cls-5" cx="47.76" cy="75.22" r="3.83"/>
              <circle class="cls-5" cx="55.42" cy="75.22" r="3.83"/>
              <circle class="cls-5" cx="63.08" cy="75.22" r="3.83"/>
              <circle class="cls-5" cx="70.75" cy="75.22" r="3.83"/>
              <path class="cls-5" d="M82.24,75.22c0,2.12-1.72,3.83-3.83,3.83s-3.83-1.72-3.83-3.83,1.72-3.83,3.83-3.83,3.83,1.72,3.83,3.83Z"/>
              <circle class="cls-5" cx="86.07" cy="75.22" r="3.83"/>
              <circle class="cls-5" cx="93.73" cy="75.22" r="3.83"/>
              <circle class="cls-5" cx="101.39" cy="75.22" r="3.83"/>
              <circle class="cls-5" cx="109.05" cy="75.22" r="3.83"/>
              <circle class="cls-5" cx="116.71" cy="75.22" r="3.83"/>
              <circle class="cls-5" cx="124.38" cy="75.22" r="3.83"/>
            </g>
            <g>
              <circle class="cls-5" cx="1.79" cy="67.55" r="3.83"/>
              <circle class="cls-5" cx="9.45" cy="67.55" r="3.83"/>
              <circle class="cls-5" cx="17.11" cy="67.55" r="3.83"/>
              <circle class="cls-5" cx="24.78" cy="67.55" r="3.83"/>
              <circle class="cls-5" cx="32.44" cy="67.55" r="3.83"/>
              <circle class="cls-5" cx="40.1" cy="67.55" r="3.83"/>
              <circle class="cls-5" cx="47.76" cy="67.55" r="3.83"/>
              <circle class="cls-5" cx="55.42" cy="67.55" r="3.83"/>
              <circle class="cls-5" cx="63.08" cy="67.55" r="3.83"/>
              <circle class="cls-5" cx="70.75" cy="67.55" r="3.83"/>
              <path class="cls-5" d="M82.24,67.55c0,2.12-1.72,3.83-3.83,3.83s-3.83-1.72-3.83-3.83,1.72-3.83,3.83-3.83,3.83,1.72,3.83,3.83Z"/>
              <circle class="cls-5" cx="86.07" cy="67.55" r="3.83"/>
              <circle class="cls-5" cx="93.73" cy="67.55" r="3.83"/>
              <circle class="cls-5" cx="101.39" cy="67.55" r="3.83"/>
              <circle class="cls-5" cx="109.05" cy="67.55" r="3.83"/>
              <circle class="cls-5" cx="116.71" cy="67.55" r="3.83"/>
              <circle class="cls-5" cx="124.38" cy="67.55" r="3.83"/>
            </g>
          </g>
        </g>
        <g class="cls-7">
          <g>
            <g>
              <circle cx="1.79" cy="90.54" r="3.83"/>
              <circle cx="9.45" cy="90.54" r="3.83"/>
              <circle cx="17.11" cy="90.54" r="3.83"/>
              <circle cx="24.78" cy="90.54" r="3.83"/>
              <circle cx="32.44" cy="90.54" r="3.83"/>
              <circle cx="40.1" cy="90.54" r="3.83"/>
              <circle cx="47.76" cy="90.54" r="3.83"/>
              <circle cx="55.42" cy="90.54" r="3.83"/>
              <circle cx="63.08" cy="90.54" r="3.83"/>
              <circle cx="70.75" cy="90.54" r="3.83"/>
              <path d="M82.24,90.54c0,2.12-1.72,3.83-3.83,3.83s-3.83-1.72-3.83-3.83,1.72-3.83,3.83-3.83,3.83,1.72,3.83,3.83Z"/>
              <circle cx="86.07" cy="90.54" r="3.83"/>
              <circle cx="93.73" cy="90.54" r="3.83"/>
              <circle cx="101.39" cy="90.54" r="3.83"/>
              <circle cx="109.05" cy="90.54" r="3.83"/>
              <circle cx="116.71" cy="90.54" r="3.83"/>
              <circle cx="124.38" cy="90.54" r="3.83"/>
            </g>
            <g>
              <circle cx="1.79" cy="98.31" r="3.83"/>
              <circle cx="9.45" cy="98.31" r="3.83"/>
              <circle cx="17.11" cy="98.31" r="3.83"/>
              <circle cx="24.78" cy="98.31" r="3.83"/>
              <circle cx="32.44" cy="98.31" r="3.83"/>
              <circle cx="40.1" cy="98.31" r="3.83"/>
              <circle cx="47.76" cy="98.31" r="3.83"/>
              <circle cx="55.42" cy="98.31" r="3.83"/>
              <circle cx="63.08" cy="98.31" r="3.83"/>
              <circle cx="70.75" cy="98.31" r="3.83"/>
              <path d="M82.24,98.31c0,2.12-1.72,3.83-3.83,3.83s-3.83-1.72-3.83-3.83,1.72-3.83,3.83-3.83,3.83,1.72,3.83,3.83Z"/>
              <circle cx="86.07" cy="98.31" r="3.83"/>
              <circle cx="93.73" cy="98.31" r="3.83"/>
              <circle cx="101.39" cy="98.31" r="3.83"/>
              <circle cx="109.05" cy="98.31" r="3.83"/>
              <circle cx="116.71" cy="98.31" r="3.83"/>
              <circle cx="124.38" cy="98.31" r="3.83"/>
            </g>
            <g>
              <circle cx="1.79" cy="82.88" r="3.83"/>
              <circle cx="9.45" cy="82.88" r="3.83"/>
              <circle cx="17.11" cy="82.88" r="3.83"/>
              <circle cx="24.78" cy="82.88" r="3.83"/>
              <circle cx="32.44" cy="82.88" r="3.83"/>
              <circle cx="40.1" cy="82.88" r="3.83"/>
              <circle cx="47.76" cy="82.88" r="3.83"/>
              <circle cx="55.42" cy="82.88" r="3.83"/>
              <circle cx="63.08" cy="82.88" r="3.83"/>
              <circle cx="70.75" cy="82.88" r="3.83"/>
              <path d="M82.24,82.88c0,2.12-1.72,3.83-3.83,3.83s-3.83-1.72-3.83-3.83,1.72-3.83,3.83-3.83,3.83,1.72,3.83,3.83Z"/>
              <circle cx="86.07" cy="82.88" r="3.83"/>
              <circle cx="93.73" cy="82.88" r="3.83"/>
              <circle cx="101.39" cy="82.88" r="3.83"/>
              <circle cx="109.05" cy="82.88" r="3.83"/>
              <circle cx="116.71" cy="82.88" r="3.83"/>
              <circle cx="124.38" cy="82.88" r="3.83"/>
            </g>
            <g>
              <circle cx="1.79" cy="75.22" r="3.83"/>
              <circle cx="9.45" cy="75.22" r="3.83"/>
              <circle cx="17.11" cy="75.22" r="3.83"/>
              <circle cx="24.78" cy="75.22" r="3.83"/>
              <circle cx="32.44" cy="75.22" r="3.83"/>
              <circle cx="40.1" cy="75.22" r="3.83"/>
              <circle cx="47.76" cy="75.22" r="3.83"/>
              <circle cx="55.42" cy="75.22" r="3.83"/>
              <circle cx="63.08" cy="75.22" r="3.83"/>
              <circle cx="70.75" cy="75.22" r="3.83"/>
              <path d="M82.24,75.22c0,2.12-1.72,3.83-3.83,3.83s-3.83-1.72-3.83-3.83,1.72-3.83,3.83-3.83,3.83,1.72,3.83,3.83Z"/>
              <circle cx="86.07" cy="75.22" r="3.83"/>
              <circle cx="93.73" cy="75.22" r="3.83"/>
              <circle cx="101.39" cy="75.22" r="3.83"/>
              <circle cx="109.05" cy="75.22" r="3.83"/>
              <circle cx="116.71" cy="75.22" r="3.83"/>
              <circle cx="124.38" cy="75.22" r="3.83"/>
            </g>
            <g>
              <circle cx="1.79" cy="67.55" r="3.83"/>
              <circle cx="9.45" cy="67.55" r="3.83"/>
              <circle cx="17.11" cy="67.55" r="3.83"/>
              <circle cx="24.78" cy="67.55" r="3.83"/>
              <circle cx="32.44" cy="67.55" r="3.83"/>
              <circle cx="40.1" cy="67.55" r="3.83"/>
              <circle cx="47.76" cy="67.55" r="3.83"/>
              <circle cx="55.42" cy="67.55" r="3.83"/>
              <circle cx="63.08" cy="67.55" r="3.83"/>
              <circle cx="70.75" cy="67.55" r="3.83"/>
              <path d="M82.24,67.55c0,2.12-1.72,3.83-3.83,3.83s-3.83-1.72-3.83-3.83,1.72-3.83,3.83-3.83,3.83,1.72,3.83,3.83Z"/>
              <circle cx="86.07" cy="67.55" r="3.83"/>
              <circle cx="93.73" cy="67.55" r="3.83"/>
              <circle cx="101.39" cy="67.55" r="3.83"/>
              <circle cx="109.05" cy="67.55" r="3.83"/>
              <circle cx="116.71" cy="67.55" r="3.83"/>
              <circle cx="124.38" cy="67.55" r="3.83"/>
            </g>
          </g>
        </g>
        <g class="cls-6">
          <g>
            <g>
              <circle class="cls-2" cx="1.79" cy="90.54" r="3.83"/>
              <circle class="cls-2" cx="9.45" cy="90.54" r="3.83"/>
              <circle class="cls-2" cx="17.11" cy="90.54" r="3.83"/>
              <circle class="cls-2" cx="24.78" cy="90.54" r="3.83"/>
              <circle class="cls-2" cx="32.44" cy="90.54" r="3.83"/>
              <circle class="cls-2" cx="40.1" cy="90.54" r="3.83"/>
              <circle class="cls-2" cx="47.76" cy="90.54" r="3.83"/>
              <circle class="cls-2" cx="55.42" cy="90.54" r="3.83"/>
              <circle class="cls-2" cx="63.08" cy="90.54" r="3.83"/>
              <circle class="cls-2" cx="70.75" cy="90.54" r="3.83"/>
              <path class="cls-2" d="M82.24,90.54c0,2.12-1.72,3.83-3.83,3.83s-3.83-1.72-3.83-3.83,1.72-3.83,3.83-3.83,3.83,1.72,3.83,3.83Z"/>
              <circle class="cls-2" cx="86.07" cy="90.54" r="3.83"/>
              <circle class="cls-2" cx="93.73" cy="90.54" r="3.83"/>
              <circle class="cls-2" cx="101.39" cy="90.54" r="3.83"/>
              <circle class="cls-2" cx="109.05" cy="90.54" r="3.83"/>
              <circle class="cls-2" cx="116.71" cy="90.54" r="3.83"/>
              <circle class="cls-2" cx="124.38" cy="90.54" r="3.83"/>
            </g>
            <g>
              <circle class="cls-2" cx="1.79" cy="98.31" r="3.83"/>
              <circle class="cls-2" cx="9.45" cy="98.31" r="3.83"/>
              <circle class="cls-2" cx="17.11" cy="98.31" r="3.83"/>
              <circle class="cls-2" cx="24.78" cy="98.31" r="3.83"/>
              <circle class="cls-2" cx="32.44" cy="98.31" r="3.83"/>
              <circle class="cls-2" cx="40.1" cy="98.31" r="3.83"/>
              <circle class="cls-2" cx="47.76" cy="98.31" r="3.83"/>
              <circle class="cls-2" cx="55.42" cy="98.31" r="3.83"/>
              <circle class="cls-2" cx="63.08" cy="98.31" r="3.83"/>
              <circle class="cls-2" cx="70.75" cy="98.31" r="3.83"/>
              <path class="cls-2" d="M82.24,98.31c0,2.12-1.72,3.83-3.83,3.83s-3.83-1.72-3.83-3.83,1.72-3.83,3.83-3.83,3.83,1.72,3.83,3.83Z"/>
              <circle class="cls-2" cx="86.07" cy="98.31" r="3.83"/>
              <circle class="cls-2" cx="93.73" cy="98.31" r="3.83"/>
              <circle class="cls-2" cx="101.39" cy="98.31" r="3.83"/>
              <circle class="cls-2" cx="109.05" cy="98.31" r="3.83"/>
              <circle class="cls-2" cx="116.71" cy="98.31" r="3.83"/>
              <circle class="cls-2" cx="124.38" cy="98.31" r="3.83"/>
            </g>
            <g>
              <circle class="cls-2" cx="1.79" cy="82.88" r="3.83"/>
              <circle class="cls-2" cx="9.45" cy="82.88" r="3.83"/>
              <circle class="cls-2" cx="17.11" cy="82.88" r="3.83"/>
              <circle class="cls-2" cx="24.78" cy="82.88" r="3.83"/>
              <circle class="cls-2" cx="32.44" cy="82.88" r="3.83"/>
              <circle class="cls-2" cx="40.1" cy="82.88" r="3.83"/>
              <circle class="cls-2" cx="47.76" cy="82.88" r="3.83"/>
              <circle class="cls-2" cx="55.42" cy="82.88" r="3.83"/>
              <circle class="cls-2" cx="63.08" cy="82.88" r="3.83"/>
              <circle class="cls-2" cx="70.75" cy="82.88" r="3.83"/>
              <path class="cls-2" d="M82.24,82.88c0,2.12-1.72,3.83-3.83,3.83s-3.83-1.72-3.83-3.83,1.72-3.83,3.83-3.83,3.83,1.72,3.83,3.83Z"/>
              <circle class="cls-2" cx="86.07" cy="82.88" r="3.83"/>
              <circle class="cls-2" cx="93.73" cy="82.88" r="3.83"/>
              <circle class="cls-2" cx="101.39" cy="82.88" r="3.83"/>
              <circle class="cls-2" cx="109.05" cy="82.88" r="3.83"/>
              <circle class="cls-2" cx="116.71" cy="82.88" r="3.83"/>
              <circle class="cls-2" cx="124.38" cy="82.88" r="3.83"/>
            </g>
            <g>
              <circle class="cls-2" cx="1.79" cy="75.22" r="3.83"/>
              <circle class="cls-2" cx="9.45" cy="75.22" r="3.83"/>
              <circle class="cls-2" cx="17.11" cy="75.22" r="3.83"/>
              <circle class="cls-2" cx="24.78" cy="75.22" r="3.83"/>
              <circle class="cls-2" cx="32.44" cy="75.22" r="3.83"/>
              <circle class="cls-2" cx="40.1" cy="75.22" r="3.83"/>
              <circle class="cls-2" cx="47.76" cy="75.22" r="3.83"/>
              <circle class="cls-2" cx="55.42" cy="75.22" r="3.83"/>
              <circle class="cls-2" cx="63.08" cy="75.22" r="3.83"/>
              <circle class="cls-2" cx="70.75" cy="75.22" r="3.83"/>
              <path class="cls-2" d="M82.24,75.22c0,2.12-1.72,3.83-3.83,3.83s-3.83-1.72-3.83-3.83,1.72-3.83,3.83-3.83,3.83,1.72,3.83,3.83Z"/>
              <circle class="cls-2" cx="86.07" cy="75.22" r="3.83"/>
              <circle class="cls-2" cx="93.73" cy="75.22" r="3.83"/>
              <circle class="cls-2" cx="101.39" cy="75.22" r="3.83"/>
              <circle class="cls-2" cx="109.05" cy="75.22" r="3.83"/>
              <circle class="cls-2" cx="116.71" cy="75.22" r="3.83"/>
              <circle class="cls-2" cx="124.38" cy="75.22" r="3.83"/>
            </g>
            <g>
              <circle class="cls-2" cx="1.79" cy="67.55" r="3.83"/>
              <circle class="cls-2" cx="9.45" cy="67.55" r="3.83"/>
              <circle class="cls-2" cx="17.11" cy="67.55" r="3.83"/>
              <circle class="cls-2" cx="24.78" cy="67.55" r="3.83"/>
              <circle class="cls-2" cx="32.44" cy="67.55" r="3.83"/>
              <circle class="cls-2" cx="40.1" cy="67.55" r="3.83"/>
              <circle class="cls-2" cx="47.76" cy="67.55" r="3.83"/>
              <circle class="cls-2" cx="55.42" cy="67.55" r="3.83"/>
              <circle class="cls-2" cx="63.08" cy="67.55" r="3.83"/>
              <circle class="cls-2" cx="70.75" cy="67.55" r="3.83"/>
              <path class="cls-2" d="M82.24,67.55c0,2.12-1.72,3.83-3.83,3.83s-3.83-1.72-3.83-3.83,1.72-3.83,3.83-3.83,3.83,1.72,3.83,3.83Z"/>
              <circle class="cls-2" cx="86.07" cy="67.55" r="3.83"/>
              <circle class="cls-2" cx="93.73" cy="67.55" r="3.83"/>
              <circle class="cls-2" cx="101.39" cy="67.55" r="3.83"/>
              <circle class="cls-2" cx="109.05" cy="67.55" r="3.83"/>
              <circle class="cls-2" cx="116.71" cy="67.55" r="3.83"/>
              <circle class="cls-2" cx="124.38" cy="67.55" r="3.83"/>
            </g>
          </g>
        </g>
      </g>
      <path class="cls-5" d="M76.44,55.86c0-10.02,.02-29,.02-29h-27.17c0,.65-.42,19.2-.63,29.01-.07,3.32-2.03,6.32-5.06,7.7-4.63,2.1-7.49,4.98-7.49,8.15,0,6.44,11.75,11.66,26.23,11.66s26.23-5.22,26.23-11.66c0-3.09-2.71-5.9-7.13-7.99-3.05-1.44-5.01-4.5-5.01-7.87Z"/>
      <g class="cls-9">
        <path d="M63.67,45.54c.38,1.27,.99,2.28,1.74,3.14,1.38,1.09,2.76,2.17,4.15,3.24,.45,.28,.9,.56,1.33,.84,1.03,.67,2.06,1.32,3.09,1.98,1.73,1,3.45,2.02,5.18,3.02,1.17,.68,2.35,1.32,3.56,1.88-.69-7.65-1.73-15.26-3.11-22.77-.07-.4-.17-.83-.44-1.06-.3-.25-.69-.17-1.04-.07-4.15,1.09-16.97,1.38-14.45,9.8Z"/>
      </g>
      <path class="cls-5" d="M63.54,50.44h0c-9.89,0-17.91-8.02-17.91-17.91v-.7c0-9.89,8.02-17.91,17.91-17.91h0c9.89,0,17.91,8.02,17.91,17.91v.7c0,9.89-8.02,17.91-17.91,17.91Z"/>
      <path d="M54.47,32.17c0,.4-.33,.73-.73,.73s-.73-.33-.73-.73,.33-.73,.73-.73,.73,.33,.73,.73Z"/>
      <path d="M74.94,32.17c0,.4-.33,.73-.73,.73s-.73-.33-.73-.73,.33-.73,.73-.73,.73,.33,.73,.73Z"/>
      <path class="cls-1" d="M50.8,29.46c1.11-.86,2.55-1.28,3.95-1.15"/>
      <path class="cls-1" d="M77.77,28.78c-1.18-.84-2.69-1.2-4.12-1"/>
      <path class="cls-5" d="M47.54,25.76c-1.65-.33-3.46-.26-4.87,.78s-2.22,3.28-1.43,4.97c.44,.95,1.29,1.58,2.14,2.04,1.17,.63,2.42,1.04,3.7,1.21"/>
      <path d="M46.27,28.67c-.62-.18-1.31-.17-1.85,.22s-.87,1.2-.63,1.87c.18,.49,.61,.82,1.06,.95,.45,.13,.93,.1,1.39,.06"/>
      <path class="cls-5" d="M79.8,25.76c1.65-.33,3.46-.26,4.87,.78,1.41,1.04,2.22,3.28,1.43,4.97-.44,.95-1.29,1.58-2.14,2.04-1.17,.63-2.42,1.04-3.7,1.21"/>
      <path d="M81.07,28.67c.62-.18,1.31-.17,1.85,.22s.87,1.2,.63,1.87c-.18,.49-.61,.82-1.06,.95-.45,.13-.93,.1-1.39,.06"/>
      <path class="cls-1" d="M63.91,28.09c0,2.21,0,4.43,0,6.64,.55-.04,1.19-.04,1.53,.4,.32,.41,.19,1.06-.21,1.4s-.96,.42-1.47,.32"/>
      <path class="cls-5" d="M61.71,3.74c-2.4,3.54-3.19,8.41-1.1,12.14s7.48,5.52,10.97,3.04c.2,4.67,3.04,9.24,7.32,11.11,4.28,1.88,9.82,.69,12.65-3.03"/>
      <path class="cls-5" d="M59.34,12.73c-.66,1.76-1.32,3.55-2.38,5.1-1.71,2.51-4.43,4.31-7.41,4.89s-6.18-.05-8.71-1.74"/>
      <path class="cls-1" d="M55.96,41.54c4.5,1.76,9.7,1.65,14.13-.29"/>
      <path class="cls-3" d="M61.94,48.16c.5,.37,1.21,.44,1.78,.17"/>
      <path d="M49.25,44.35c0,2.68-1.52,4.86-3.4,4.86s-3.4-2.17-3.4-4.86,3.4-9.72,3.4-9.72c0,0,3.4,7.03,3.4,9.72Z"/>
      <path d="M85.2,44.35c0,2.68-1.52,4.86-3.4,4.86s-3.4-2.17-3.4-4.86,3.4-9.72,3.4-9.72c0,0,3.4,7.03,3.4,9.72Z"/>
      <path class="cls-5" d="M96.04,31.29c1.01,1.69,1.45,3.7,1.25,5.66"/>
      <path class="cls-5" d="M97.16,43.56c-1.37,1.15-2.13,2.99-1.96,4.77,.17,1.78,1.27,3.45,2.83,4.31"/>
      <path class="cls-5" d="M104.9,55.39c.45,1.94,0,4.06-1.2,5.65"/>
      <path class="cls-5" d="M86.63,54.73c-.34,.96,.28,2.06,1.16,2.58,.88,.52,1.94,.6,2.97,.63"/>
      <path class="cls-5" d="M77.09,13.26c-1.22,2.03-.65,4.95,1.25,6.36"/>
      <path class="cls-5" d="M84.69,16.71c.44,1.45,.88,2.93,.84,4.45-.05,1.51-.67,3.09-1.94,3.91"/>
      <path class="cls-5" d="M53.77,7.94c.56,2.22-.6,4.74-2.64,5.77"/>
      <path class="cls-5" d="M47.55,11.64c-.83,.8-1.28,1.98-1.19,3.14,.09,1.15,.71,2.25,1.66,2.92"/>
      <path class="cls-5" d="M41.39,70.8c-.79,1.73-.17,3.98,1.39,5.07"/>
      <path class="cls-5" d="M43.37,51.27c1.61,.82,2.39,2.96,1.7,4.62"/>
      <path class="cls-5" d="M87.99,41.84c1.53-.15,2.77-1.53,3.05-3.04,.29-1.51-.24-3.1-1.12-4.36"/>
      <path class="cls-5" d="M71.95,11.78c-.6,1.91-2.78,3.16-4.73,2.72"/>
      <path class="cls-5" d="M66.85,4.3c-.99,.97-1.14,2.68-.33,3.81"/>
      <path class="cls-5" d="M75.08,6.27c1.79,.78,3.21,2.38,3.78,4.25"/>
      <path class="cls-5" d="M97.29,58.3c.86,2.14,.49,4.72-.93,6.53"/>
      <path class="cls-5" d="M79.78,53.91c-.52,2.09-.45,4.33,.22,6.38"/>
    </g>
  </g>
</svg>