<svg width="40" height="38" viewBox="0 0 40 38" fill="none" xmlns="http://www.w3.org/2000/svg">
<path d="M10.6113 0.625L15.2988 7.65625V2.96875H12.9551V0.625H20.5723V2.96875H18.2285V7.65625H20.5723V10H10.6113L5.92383 2.96875V7.65625H8.26758V10H0.650391V7.65625H2.99414V2.96875H0.650391V0.625H10.6113ZM31.3887 10H29.6309H22.0137V7.65625H23.7715V2.96875H22.0137V0.625H36.6621H39.5918V2.96875V4.72656H37.834C37.834 4.58203 37.8262 4.41016 37.8105 4.21094C37.7988 4.01172 37.7578 3.81836 37.6875 3.63086C37.6172 3.44336 37.502 3.28711 37.3418 3.16211C37.1816 3.0332 36.9551 2.96875 36.6621 2.96875H29.6309V4.14062H34.3184V6.48438H29.6309V7.65625H31.3887H36.6621C36.9551 7.65625 37.1816 7.59375 37.3418 7.46875C37.502 7.33984 37.6172 7.18164 37.6875 6.99414C37.7578 6.80664 37.7988 6.61328 37.8105 6.41406C37.8262 6.21484 37.834 6.04297 37.834 5.89844H39.5918V7.65625V10H36.6621H31.3887ZM10.0254 24H8.26758H0.650391V21.6562H2.4082V16.9688H0.650391V14.625H15.2988H18.2285V16.9688V18.7266H16.4707C16.4707 18.582 16.4629 18.4102 16.4473 18.2109C16.4355 18.0117 16.3945 17.8184 16.3242 17.6309C16.2539 17.4434 16.1387 17.2871 15.9785 17.1621C15.8184 17.0332 15.5918 16.9688 15.2988 16.9688H8.26758V18.1406H12.9551V20.4844H8.26758V21.6562H10.0254H15.2988C15.5918 21.6562 15.8184 21.5938 15.9785 21.4688C16.1387 21.3398 16.2539 21.1816 16.3242 20.9941C16.3945 20.8066 16.4355 20.6133 16.4473 20.4141C16.4629 20.2148 16.4707 20.043 16.4707 19.8984H18.2285V21.6562V24H15.2988H10.0254ZM27.873 24H26.1094H20.25V14.6309H26.1094H27.873H30.2168H31.9746C32.5605 14.6309 33.1367 14.6816 33.7031 14.7832C34.2734 14.8848 34.8066 15.0469 35.3027 15.2695C35.7988 15.4922 36.2363 15.7852 36.6152 16.1484C36.9941 16.5117 37.291 16.9551 37.5059 17.4785C37.7246 18.002 37.834 18.6133 37.834 19.3125C37.834 20.0156 37.7246 20.6289 37.5059 21.1523C37.291 21.6758 36.9941 22.1191 36.6152 22.4824C36.2363 22.8457 35.7988 23.1387 35.3027 23.3613C34.8066 23.584 34.2734 23.7461 33.7031 23.8477C33.1367 23.9492 32.5605 24 31.9746 24H30.2168H27.873ZM26.1094 16.9746V21.6562H27.873H29.0449C29.5332 21.6562 30 21.584 30.4453 21.4395C30.8945 21.291 31.2578 21.0449 31.5352 20.7012C31.8164 20.3574 31.9629 19.8945 31.9746 19.3125V19.3184V19.3125C31.9629 18.7383 31.8184 18.2793 31.541 17.9355C31.2676 17.5918 30.9121 17.3457 30.4746 17.1973C30.0371 17.0488 29.5703 16.9746 29.0742 16.9746H27.873H26.1094ZM14.0859 38H11.1562H0.603516V35.6562H1.77539V30.9688H0.603516V28.625H8.8125V30.9688H7.64062V35.6562H11.1562C11.4492 35.6562 11.6758 35.5938 11.8359 35.4688C11.9961 35.3398 12.1113 35.1816 12.1816 34.9941C12.252 34.8066 12.293 34.6133 12.3047 34.4141C12.3203 34.2148 12.3281 34.043 12.3281 33.8984H14.0859V35.6562V38ZM24.5332 38H22.7754H15.1582V35.6562H16.916V30.9688H15.1582V28.625H29.8066H32.7363V30.9688V32.7266H30.9785C30.9785 32.582 30.9707 32.4102 30.9551 32.2109C30.9434 32.0117 30.9023 31.8184 30.832 31.6309C30.7617 31.4434 30.6465 31.2871 30.4863 31.1621C30.3262 31.0332 30.0996 30.9688 29.8066 30.9688H22.7754V32.1406H27.4629V34.4844H22.7754V35.6562H24.5332H29.8066C30.0996 35.6562 30.3262 35.5938 30.4863 35.4688C30.6465 35.3398 30.7617 35.1816 30.832 34.9941C30.9023 34.8066 30.9434 34.6133 30.9551 34.4141C30.9707 34.2148 30.9785 34.043 30.9785 33.8984H32.7363V35.6562V38H29.8066H24.5332Z" fill="#FF0000"/>
</svg>
